<svg xmlns="http://www.w3.org/2000/svg" xmlns:xlink="http://www.w3.org/1999/xlink" viewBox="2166 2141.1 358.2 88.9"><defs><style>.a{fill:url(#a);}.b{fill:#666;}</style><linearGradient id="a" y1="0.499" x2="1" y2="0.453" gradientUnits="objectBoundingBox"><stop offset="0" stop-color="#b474da"/><stop offset="1" stop-color="#0ec9ff"/></linearGradient></defs><g transform="translate(1623 657)"><path class="a" d="M52.7,21.4A21.4,21.4,0,1,1,74.1,42.8,21.424,21.424,0,0,1,52.7,21.4Zm9.5,0A11.9,11.9,0,1,0,74.1,9.5,11.928,11.928,0,0,0,62.2,21.4Zm71.5,18.2V26.1H113.9A14.084,14.084,0,0,1,99.8,12V2.3h9.6V12a4.481,4.481,0,0,0,4.5,4.5h19.8V2.3h9.6V39.6Zm211.6-.1-1-4.6H323.1l-1,4.6h-9.6l7.9-37.2H347l7.9,37.2ZM325.2,25.4h17.1l-2.9-13.6H328.1ZM293.7,39.5V25.7H269.4V39.5h-9.6V2.3h9.6V16.1h24.3V2.3h9.6V39.5Zm-55.3,0V15.7L214.2,39.5h-9.7V2.3h9.6V26.2l24.3-24v.1h9.5V39.5Zm-52.8,0-1-4.6H163.4l-1,4.6h-9.6l7.9-37.2h26.6l7.9,37.2ZM165.4,25.4h17.1l-2.9-13.6H168.3ZM33.9,39.5V11.8H9.6V39.5H0V2.3H43.4V39.5Z" transform="translate(543.1 1484.1)"/><path class="b" d="M-257.7-1790.1v-3.9h-16.7v-23.1h5.3v18.1h7.9v-18.1h5.3v18.1h3.1v8.9Zm-221-4.1.1-5.3a1.9,1.9,0,0,0,2.2-.8,6.885,6.885,0,0,0,1-2.1,46.306,46.306,0,0,0,1.5-10.2l.3-4.6h15.2v23h-5.1v-18h-5.1l-.5,4.3c-1.233,10.657-3.552,13.867-7.777,13.867A11.134,11.134,0,0,1-478.7-1794.2Zm301.8.1h0Zm-5.2,0v-23h7c3.2,0,5.6.7,7.1,2.2a7.017,7.017,0,0,1,2.2,5.4,7.637,7.637,0,0,1-2.3,5.5,8.406,8.406,0,0,1-6.2,2.2,18.61,18.61,0,0,1-2.6-.1v7.8Zm5.3-12.8a19.4,19.4,0,0,0,2.4.2c1.7,0,3.1-.8,3.1-2.8,0-1.8-1-2.7-3.2-2.7h-2.3Zm-21.9,12.8v-18.1h-6.8v-4.9h19v4.9h-6.9v18.1Zm-16.4,0v-9.3h-8.4v9.3h-5.3v-23h5.3v8.8h8.4v-8.8h5.3v23Zm-33.3,0v-23h13.6v4.9h-8.4v4h7.4v4.9h-7.4v4.3h8.7v4.9Zm-47,0v-14.3l-10.2,14.3h-4.6v-23h5.3v14.3l10.2-14.3h4.6v23Zm-26.5,0v-23h5.3v23Zm-15.2,0h-2.7v-23h5.3v7.2a14.1,14.1,0,0,1,2-.1c5.5,0,8.4,2.9,8.4,7.7a7.569,7.569,0,0,1-2.5,6c-1.7,1.5-4,2.2-7,2.2Zm2.6-10.8v5.8a11.458,11.458,0,0,0,1.5.1c2.2,0,3.3-1.1,3.3-3.2,0-2-1.2-3-3.2-3A15.916,15.916,0,0,1-334.5-1804.9Zm-17,10.8v-9.3h-8.4v9.3h-5.3v-23h5.3v8.8h8.4v-8.8h5.3v23Zm-29.6,0h.1Zm-5.2,0v-23h7c3.2,0,5.6.7,7.1,2.2a7.017,7.017,0,0,1,2.2,5.4,7.637,7.637,0,0,1-2.3,5.5,8.406,8.406,0,0,1-6.2,2.2,18.589,18.589,0,0,1-2.6-.1v7.8Zm5.3-12.8a19.415,19.415,0,0,0,2.4.2c1.7,0,3.1-.8,3.1-2.8,0-1.8-1-2.7-3.2-2.7H-381Zm-47.3,12.8v-18.1h-6.8v-4.9h19v4.9H-423v18.1Zm-20.9,0h-2.7v-23h5.3v7.2a14.084,14.084,0,0,1,2-.1c5.8,0,8.7,2.9,8.7,7.7,0,5-3.5,8.2-9.8,8.2Zm2.6-10.8v5.8a11.8,11.8,0,0,0,1.6.1c2.4,0,3.6-1.1,3.6-3.2q0-3-3.6-3A11.755,11.755,0,0,1-446.6-1804.9Zm-64.3,10.8-7.8-10.9v10.9H-524v-23h5.3v10l7.5-10h6.3l-8.6,10.6,9.3,12.4Zm102.4-1.1,1.8-4.5a2.9,2.9,0,0,0,1.6.6,1.661,1.661,0,0,0,1.7-.9l.3-.7-9.9-16.4h5.9l6.5,11.2,4.7-11.2h5.3l-7.7,17.5c-1.6,3.7-3.7,5.4-6.7,5.4A6.907,6.907,0,0,1-408.5-1795.2Zm-88.7,0,1.8-4.5a2.9,2.9,0,0,0,1.6.6,1.661,1.661,0,0,0,1.7-.9l.3-.7-9.9-16.4h5.9l6.5,11.2,4.7-11.2h5.3l-7.7,17.5c-1.6,3.7-3.7,5.4-6.7,5.4A6.9,6.9,0,0,1-497.2-1795.2Zm190.5-27.9h5.1v.1c0,1.2.6,1.6,2,1.6,1.3,0,1.9-.3,1.9-1.6h4.9a4.355,4.355,0,0,1-1.9,3.8,7.631,7.631,0,0,1-5,1.4C-304.1-1817.8-306.7-1819.9-306.7-1823.1Z" transform="translate(1067 3363.1)"/></g></svg>